<?xml version="1.0" encoding="utf-8"?>
<!-- Generator: Adobe Illustrator 27.5.0, SVG Export Plug-In . SVG Version: 6.00 Build 0)  -->
<svg version="1.1" xmlns="http://www.w3.org/2000/svg" xmlns:xlink="http://www.w3.org/1999/xlink" x="0px" y="0px"
	 viewBox="0 0 500 500" style="enable-background:new 0 0 500 500;" xml:space="preserve">
<g id="Floor">
	<path id="Floor_00000013876646643919197920000017874447876317227658_" style="fill:#FAFAFA;" d="M77.661,236.188
		c-95.177,54.951-95.175,144.044,0.005,198.995c95.18,54.951,249.496,54.951,344.674,0c95.178-54.951,95.175-144.044-0.005-198.995
		S172.838,181.237,77.661,236.188z"/>
</g>
<g id="Shadows">
	<path id="Shadow_46_" style="fill:#E0E0E0;" d="M478.897,317.138l-15.615-17.741l-0.007,0.011l-0.018-0.011h-0.001l-164.636-95.219
		c-4.098-2.801-10.241,2.884-12.632,8.61c-0.001,0.003-0.002,0.005-0.003,0.007c-0.375,0.899-0.666,1.8-0.833,2.668
		c-0.461,2.377-0.06,4.524,1.704,5.735l166.005,95.986c-0.001-0.003-0.001-0.009-0.002-0.012c0.002,0.003,0.003,0.008,0.006,0.011
		l22.779,4.501l6.197,1.224c0.315,0.063,0.592-0.038,0.785-0.222c0.321-0.306,0.412-0.844,0.061-1.245L478.897,317.138z"/>
	<path id="Shadow_29_" style="fill:#E0E0E0;" d="M201.786,194.93L19.692,317.076c-2.714,1.821-2.702,4.578,0.027,6.156
		l246.198,141.947c2.73,1.578,7.142,1.381,9.856-0.441l182.097-122.149c2.714-1.822,2.702-4.577-0.027-6.156l-246.2-141.943
		C208.915,192.911,204.501,193.108,201.786,194.93z"/>
</g>
<g id="Pencil">
	<g id="Pencil_4_">
		<path id="XMLID_7681_" style="fill:#455A64;" d="M305.902,223.6l2.129,1.219l2.561,1.482l145.205,83.985
			c-0.796-1.787-0.172-5.355,1.651-8.779c2.124-3.99,5.375-7.146,7.728-7.266l-144.523-83.595l-4.907-2.814
			C318.819,209.831,309.015,225.563,305.902,223.6z"/>
		<g>
			<path id="XMLID_7680_" style="fill:#EBEBEB;" d="M320.43,210.506l-4.755-2.716c-1.352-0.833-3.916,1.598-6.161,4.811
				c-2.993,4.261-5.42,9.902-3.63,11.009l3.502,2.009l1.264,0.695c-1.789-1.107,0.634-6.751,3.627-11.012
				c2.154-3.077,4.619-5.439,5.998-4.869l0.015,0.008C320.339,210.45,320.383,210.472,320.43,210.506z"/>
			<path id="XMLID_7679_" style="fill:#BA68C8;" d="M319.237,209.838c-3.136-1.941-12.921,13.871-9.784,15.811l4.751,2.734
				c-3.135-1.942,6.647-17.75,9.784-15.81L319.237,209.838z"/>
			<path id="XMLID_7678_" style="fill:#EBEBEB;" d="M328.513,215.177l-4.689-2.701c-3.067-1.928-12.661,13.241-10.061,15.654
				c0.04,0.048,0.102,0.089,0.163,0.13l4.745,2.683C315.597,228.946,325.401,213.215,328.513,215.177z"/>
		</g>
		<path style="fill:#F28F8F;" d="M315.741,207.802c0.002,0.034,0.002,0.034,0.002,0.034l-0.07-0.031
			c-1.343-0.863-3.903,1.586-6.152,4.808c-2.96,4.181-5.377,9.708-3.709,10.934l-19.822-11.386
			c-1.593-1.092-1.956-3.029-1.542-5.173c1.104-5.774,7.858-13.113,12.14-10.192L315.741,207.802z"/>
		<g>
			<path id="XMLID_7655_" style="fill:#F28F8F;" d="M477.825,311.018c-1.636,2.218-1.473,3.307-1.473,3.307l-20.554-4.04
				c-2.043-3.116-0.702-8.172,2.12-11.777l0.901,0.508L477.825,311.018z"/>
			<path id="XMLID_7652_" style="fill:#37474F;" d="M481.945,315.424l-5.593-1.099c0,0-0.253-1.083,1.473-3.307l4.88,3.082l0,0
				c0.318,0.361,0.236,0.846-0.053,1.123C482.478,315.389,482.228,315.481,481.945,315.424z"/>
			<path id="XMLID_7650_" style="fill:#FFA8A7;" d="M465.159,294.232l0.016,0.009l0,0l0.007-0.01l14.102,15.991
				c-0.553,0.095-1.085,0.376-1.458,0.797l-19.005-12.003l-0.901-0.508C459.844,296.047,462.459,294.264,465.159,294.232z"/>
			<path id="XMLID_7649_" style="fill:#455A64;" d="M477.825,311.018c0.383-0.559,1.183-0.848,1.458-0.797l3.422,3.879
				L477.825,311.018z"/>
		</g>
		<path style="opacity:0.2;" d="M457.918,298.508l-171.469-96.335c-0.973,1.564-1.701,3.246-1.997,4.816
			c-0.423,2.155-0.049,4.071,1.544,5.168l19.905,11.443l2.128,1.219l2.561,1.482l145.205,83.985
			C453.293,306.42,456.038,300.705,457.918,298.508z"/>
	</g>
</g>
<g id="Notebook">
	<g id="Notebook_9_">
		<g id="XMLID_5098_">
			<path id="XMLID_5103_" style="fill:#263238;" d="M206.489,201.089L33.829,307.41l-3.533,6.212l0.021,4.875
				c0.011,2.433,1.317,4.581,3.585,5.892L262.63,456.648c1.65,0.954,3.762,1.423,5.945,1.325c2.184-0.098,4.289-0.755,5.931-1.857
				l168.766-113.252l-0.021-4.875L206.489,201.089z"/>
			<path id="XMLID_5100_" style="fill:#BA68C8;" d="M268.554,453.1c-2.184,0.098-4.295-0.374-5.945-1.328L33.881,319.515
				c-2.268-1.312-3.574-3.459-3.585-5.893c-0.01-2.433,1.277-4.697,3.533-6.212L198.853,196.67l244.399,141.32L274.485,451.241
				C272.844,452.342,270.738,453.002,268.554,453.1z"/>
		</g>
		<g id="XMLID_00000116235301516249337230000011156042497587107968_">
			<path id="XMLID_5093_" style="fill:#EBEBEB;" d="M198.787,182.365L35.639,291.851l-1.671,2.614l0.082,18.99l0,0
				c0.004,0.918,0.57,1.81,1.693,2.461l228.728,132.257c2.247,1.303,5.885,1.14,8.123-0.363l163.153-109.482l-0.082-18.993
				L198.787,182.365z"/>
			<path id="XMLID_00000005975045970130977260000014205425815117343385_" style="fill:#F0F0F0;" d="M435.672,319.339l-2.04,1.371
				l-26.55,17.812l-4.938,3.327l-129.622,86.97c-2.248,1.5-5.887,1.663-8.124,0.363L35.653,296.919
				c-2.238-1.302-2.247-3.574-0.022-5.075l2.171-1.457l160.984-108.021l234.855,135.79l0.488,0.303L435.672,319.339z"/>
			<path id="XMLID_00000134957791898410759390000012391845436508531372_" style="fill:#E0E0E0;" d="M268.453,430.057l0.082,18.989
				c-1.464,0.065-2.947-0.214-4.056-0.875L35.735,315.909c-1.11-0.64-1.676-1.528-1.68-2.462l-0.082-18.991
				c0.004,0.913,0.57,1.802,1.68,2.464l228.744,132.264C265.506,429.842,266.99,430.123,268.453,430.057z"/>
		</g>
		<g id="XMLID_5076_">
			<path style="fill:#FFFFFF;" d="M435.661,316.806l-29.375,19.704l-4.603,3.088l-129.172,86.685
				c-2.248,1.502-5.887,1.664-8.124,0.363L59.552,308.209c-1.842-1.013-3.555-2.011-5.154-2.978
				c-8.335-5.104-13.362-9.772-16.594-14.844c-0.133-0.216-0.265-0.414-0.397-0.633c-0.264-0.413-0.434-0.852-0.511-1.296
				c-0.384-1.929,0.808-3.85,2.833-4.591c3.953-1.456,9.926-3.997,15.372-7.63c0.074-0.043,0.131-0.086,0.205-0.129l143.471-96.277
				L435.661,316.806z"/>
			<path style="fill:#E0E0E0;" d="M198.814,181.008l234.958,135.86l-28.043,18.811l-4.603,3.088l-129.171,86.684
				c-1.021,0.682-2.451,1.073-3.924,1.073c-1.203,0-2.319-0.264-3.145-0.744L60.034,307.333c-1.675-0.921-3.35-1.889-5.114-2.954
				c-7.849-4.807-13.02-9.423-16.265-14.516c-0.063-0.102-0.125-0.199-0.187-0.297c-0.069-0.108-0.137-0.215-0.22-0.35
				c-0.189-0.295-0.313-0.607-0.373-0.952c-0.285-1.433,0.639-2.887,2.198-3.458c4.053-1.493,10.039-4.043,15.558-7.721
				c0.043-0.026,0.083-0.052,0.123-0.078l0.057-0.036l0.026-0.015l0.025-0.017L198.814,181.008 M198.775,179.83L55.304,276.108
				c-0.074,0.043-0.13,0.086-0.205,0.129c-5.446,3.633-11.419,6.174-15.372,7.63c-2.025,0.741-3.217,2.662-2.833,4.591
				c0.077,0.444,0.247,0.884,0.511,1.296c0.132,0.219,0.265,0.417,0.397,0.633c3.232,5.072,8.26,9.74,16.594,14.844
				c1.6,0.966,3.312,1.965,5.154,2.978l204.835,118.437c1.014,0.589,2.316,0.878,3.645,0.878c1.604,0,3.25-0.421,4.479-1.242
				l129.173-86.685l4.603-3.088l29.375-19.704L198.775,179.83L198.775,179.83z"/>
		</g>
		<g id="XMLID_5003_">
			<g id="XMLID_5062_">
				<path id="XMLID_00000125603477804555075010000018323588504800530610_" style="opacity:0.1;" d="M405.161,315.941
					c-2.08,1.406-2.07,3.538,0.019,4.759c2.091,1.219,5.487,1.067,7.585-0.339c2.1-1.409,2.09-3.54-0.02-4.76
					C410.635,314.381,407.239,314.533,405.161,315.941z"/>
				<path id="XMLID_5064_" style="fill:#263238;" d="M429.469,299.464c-2.896-1.677-6.514-1.231-10.204,1.228
					c-5.705,3.847-10.621,12.065-12.744,20.542c0.865,0.266,1.841,0.345,2.798,0.241c1.956-7.554,6.315-14.796,11.366-18.207
					c1.647-1.088,3.222-1.687,4.648-1.75c0.992-0.045,1.914,0.178,2.742,0.648c2.445,1.412,3.868,5.063,3.889,9.994
					c0.004,0.812-0.03,1.627-0.121,2.442l2.671,1.544c0.181-1.387,0.271-2.772,0.266-4.112
					C434.753,305.987,432.819,301.403,429.469,299.464z"/>
				<path id="XMLID_5063_" style="fill:#263238;" d="M434.258,317.742c-0.016,0.222-0.072,0.468-0.128,0.717l-0.488-0.303
					L434.258,317.742z"/>
			</g>
			<g id="XMLID_5058_">
				<path id="XMLID_5061_" style="opacity:0.1;" d="M382.241,302.682c-2.078,1.407-2.069,3.539,0.021,4.757
					c2.09,1.223,5.483,1.069,7.584-0.339c2.1-1.408,2.09-3.538-0.02-4.759C387.715,301.121,384.319,301.273,382.241,302.682z"/>
				<path id="XMLID_5059_" style="fill:#263238;" d="M406.55,286.205c-2.897-1.677-6.517-1.231-10.204,1.228
					c-5.705,3.846-10.624,12.065-12.745,20.543c0.864,0.266,1.84,0.344,2.797,0.24c1.957-7.556,6.317-14.795,11.367-18.208
					c1.647-1.088,3.222-1.686,4.647-1.75c0.994-0.044,1.914,0.178,2.741,0.649c2.446,1.411,3.869,5.064,3.891,9.994
					c0.004,0.813-0.03,1.626-0.121,2.442l2.672,1.545c0.181-1.389,0.271-2.774,0.265-4.114
					C411.834,292.727,409.897,288.146,406.55,286.205z"/>
			</g>
			<g id="XMLID_5051_">
				<path id="XMLID_5056_" style="opacity:0.1;" d="M359.314,289.427c-2.078,1.405-2.069,3.535,0.021,4.758
					c2.09,1.219,5.486,1.068,7.585-0.339c2.099-1.41,2.09-3.54-0.021-4.759C364.79,287.865,361.392,288.017,359.314,289.427z"/>
				<path id="XMLID_5052_" style="fill:#263238;" d="M383.624,272.948c-2.898-1.677-6.518-1.23-10.203,1.227
					c-5.708,3.849-10.626,12.067-12.746,20.545c0.864,0.264,1.841,0.343,2.796,0.24c1.956-7.556,6.316-14.795,11.368-18.209
					c1.646-1.087,3.221-1.687,4.646-1.751c0.995-0.044,1.916,0.179,2.744,0.649c2.445,1.413,3.868,5.065,3.889,9.994
					c0.003,0.813-0.032,1.628-0.123,2.443l2.672,1.545c0.182-1.39,0.269-2.771,0.263-4.113
					C388.904,279.471,386.971,274.888,383.624,272.948z"/>
			</g>
			<g id="XMLID_5042_">
				<path id="XMLID_5050_" style="opacity:0.1;" d="M336.391,276.172c-2.078,1.409-2.069,3.539,0.021,4.762
					c2.091,1.22,5.486,1.069,7.585-0.339c2.098-1.41,2.089-3.541-0.018-4.762C341.865,274.615,338.47,274.767,336.391,276.172z"/>
				<path id="XMLID_5045_" style="fill:#263238;" d="M360.699,259.697c-2.896-1.677-6.516-1.228-10.2,1.228
					c-5.706,3.848-10.625,12.064-12.746,20.544c0.864,0.265,1.839,0.343,2.796,0.24c1.956-7.559,6.316-14.795,11.367-18.21
					c1.647-1.087,3.219-1.685,4.646-1.749c0.995-0.044,1.915,0.179,2.743,0.647c2.446,1.414,3.868,5.065,3.889,9.996
					c0.004,0.811-0.031,1.626-0.122,2.441l2.673,1.544c0.181-1.389,0.267-2.77,0.261-4.111
					C365.981,266.219,364.049,261.638,360.699,259.697z"/>
			</g>
			<g id="XMLID_5038_">
				<path id="XMLID_5041_" style="opacity:0.1;" d="M313.468,262.919c-2.077,1.407-2.07,3.537,0.021,4.76
					c2.09,1.22,5.486,1.068,7.584-0.339c2.098-1.411,2.089-3.541-0.019-4.76C318.943,261.359,315.547,261.511,313.468,262.919z"/>
				<path id="XMLID_5039_" style="fill:#263238;" d="M337.777,246.443c-2.896-1.678-6.515-1.232-10.202,1.228
					c-5.706,3.85-10.625,12.063-12.746,20.542c0.863,0.265,1.842,0.343,2.798,0.241c1.956-7.558,6.314-14.795,11.367-18.208
					c1.647-1.088,3.219-1.688,4.645-1.752c0.995-0.044,1.916,0.179,2.743,0.65c2.445,1.412,3.869,5.062,3.891,9.993
					c0.003,0.812-0.031,1.626-0.122,2.443l2.672,1.545c0.182-1.389,0.268-2.771,0.262-4.113
					C343.059,252.964,341.125,248.383,337.777,246.443z"/>
			</g>
			<g id="XMLID_5031_">
				<path id="XMLID_5034_" style="opacity:0.1;" d="M290.539,249.663c-2.078,1.406-2.069,3.536,0.021,4.757
					c2.089,1.223,5.486,1.069,7.585-0.339c2.098-1.41,2.089-3.538-0.018-4.759C296.014,248.102,292.617,248.255,290.539,249.663z"/>
				<path id="XMLID_5032_" style="fill:#263238;" d="M314.849,233.185c-2.898-1.675-6.517-1.228-10.203,1.23
					c-5.707,3.848-10.625,12.064-12.746,20.543c0.864,0.265,1.841,0.343,2.797,0.24c1.957-7.557,6.316-14.795,11.365-18.208
					c1.647-1.087,3.223-1.686,4.65-1.75c0.992-0.044,1.913,0.18,2.741,0.65c2.445,1.41,3.868,5.062,3.889,9.993
					c0.003,0.81-0.031,1.626-0.121,2.442l2.672,1.545c0.181-1.391,0.269-2.773,0.263-4.113
					C320.131,239.709,318.198,235.125,314.849,233.185z"/>
			</g>
			<g id="XMLID_5027_">
				<path id="XMLID_5030_" style="opacity:0.1;" d="M267.619,236.408c-2.078,1.408-2.069,3.538,0.02,4.759
					c2.091,1.221,5.485,1.069,7.585-0.339c2.099-1.408,2.09-3.54-0.021-4.759C273.092,234.849,269.698,235.001,267.619,236.408z"/>
				<path id="XMLID_5028_" style="fill:#263238;" d="M291.926,219.932c-2.895-1.676-6.514-1.232-10.201,1.227
					c-5.706,3.849-10.623,12.066-12.746,20.545c0.865,0.265,1.838,0.344,2.798,0.239c1.955-7.556,6.316-14.796,11.367-18.208
					c1.647-1.089,3.222-1.685,4.646-1.749c0.993-0.044,1.913,0.177,2.741,0.647c2.446,1.413,3.869,5.064,3.89,9.996
					c0.004,0.811-0.03,1.623-0.118,2.439l2.669,1.545c0.183-1.386,0.27-2.773,0.265-4.111
					C297.21,226.456,295.276,221.873,291.926,219.932z"/>
			</g>
			<g id="XMLID_5023_">
				<path id="XMLID_5026_" style="opacity:0.1;" d="M244.691,223.154c-2.08,1.407-2.07,3.538,0.018,4.76
					c2.091,1.22,5.488,1.068,7.586-0.339c2.098-1.409,2.09-3.54-0.02-4.761C250.166,221.593,246.768,221.746,244.691,223.154z"/>
				<path id="XMLID_5024_" style="fill:#263238;" d="M269,206.677c-2.897-1.677-6.515-1.231-10.201,1.228
					c-5.707,3.85-10.627,12.066-12.747,20.544c0.863,0.265,1.841,0.343,2.795,0.241c1.957-7.557,6.316-14.796,11.37-18.209
					c1.647-1.09,3.219-1.687,4.644-1.75c0.993-0.044,1.915,0.179,2.743,0.648c2.445,1.413,3.869,5.064,3.891,9.996
					c0.003,0.81-0.031,1.625-0.121,2.44l2.672,1.546c0.18-1.388,0.268-2.773,0.263-4.112C274.283,213.2,272.349,208.619,269,206.677
					z"/>
			</g>
			<g id="XMLID_5008_">
				<path id="XMLID_5022_" style="opacity:0.1;" d="M221.771,209.896c-2.079,1.407-2.069,3.539,0.02,4.76
					c2.088,1.22,5.486,1.069,7.585-0.339c2.097-1.409,2.09-3.541-0.02-4.761C227.246,208.336,223.848,208.487,221.771,209.896z"/>
				<path id="XMLID_5009_" style="fill:#263238;" d="M246.079,193.421c-2.897-1.677-6.515-1.231-10.2,1.227
					c-5.708,3.849-10.626,12.064-12.746,20.544c0.864,0.266,1.84,0.344,2.795,0.238c1.957-7.556,6.317-14.796,11.368-18.209
					c1.646-1.087,3.221-1.684,4.647-1.748c0.995-0.045,1.916,0.177,2.741,0.647c2.446,1.411,3.869,5.064,3.89,9.995
					c0.004,0.812-0.03,1.625-0.12,2.441l2.672,1.545c0.182-1.389,0.268-2.773,0.262-4.112
					C251.36,199.941,249.427,195.359,246.079,193.421z"/>
			</g>
			<g id="XMLID_5004_">
				<path id="XMLID_5007_" style="opacity:0.1;" d="M198.844,196.644c-2.08,1.407-2.071,3.538,0.02,4.757
					c2.09,1.222,5.485,1.07,7.585-0.339c2.098-1.408,2.089-3.538-0.02-4.76C204.317,195.085,200.922,195.236,198.844,196.644z"/>
				<path id="XMLID_5005_" style="fill:#263238;" d="M223.152,180.166c-2.897-1.676-6.516-1.231-10.202,1.228
					c-5.706,3.848-10.625,12.065-12.746,20.544c0.865,0.267,1.839,0.342,2.798,0.239c1.954-7.558,6.314-14.796,11.366-18.208
					c1.646-1.089,3.221-1.688,4.646-1.752c0.994-0.044,1.915,0.178,2.743,0.648c2.444,1.414,3.867,5.066,3.888,9.997
					c0.004,0.813-0.03,1.624-0.12,2.44l2.671,1.547c0.18-1.389,0.268-2.773,0.263-4.112
					C228.434,186.688,226.5,182.107,223.152,180.166z"/>
			</g>
		</g>
		<g id="XMLID_4940_">
			<g id="XMLID_5002_">
				<path style="fill:#EBEBEB;" d="M245.468,402.034c-0.887,0.04-1.757-0.425-2.237-1.296c-0.713-1.306-0.3-3.029,0.924-3.85
					l125.515-84.231c1.215-0.811,2.812-0.446,3.525,0.86c0.714,1.305,0.3,3.029-0.924,3.851l-125.515,84.231
					C246.353,401.869,245.905,402.014,245.468,402.034z"/>
			</g>
			<g id="XMLID_5001_">
				<path style="fill:#EBEBEB;" d="M230.189,393.201c-0.887,0.039-1.758-0.426-2.236-1.296c-0.714-1.306-0.3-3.029,0.924-3.85
					l125.515-84.231c1.207-0.81,2.811-0.436,3.525,0.859c0.714,1.306,0.3,3.029-0.923,3.85l-125.517,84.233
					C231.076,393.035,230.629,393.181,230.189,393.201z"/>
			</g>
			<g id="XMLID_5000_">
				<path style="fill:#EBEBEB;" d="M214.903,384.36c-0.887,0.039-1.758-0.426-2.236-1.296c-0.713-1.306-0.3-3.03,0.924-3.85
					l125.515-84.233c1.206-0.81,2.803-0.436,3.525,0.859c0.713,1.306,0.299,3.031-0.925,3.851l-125.514,84.232
					C215.789,384.193,215.341,384.34,214.903,384.36z"/>
			</g>
			<g id="XMLID_4999_">
				<path style="fill:#EBEBEB;" d="M199.616,375.527c-0.887,0.039-1.758-0.426-2.237-1.296c-0.713-1.306-0.298-3.031,0.926-3.85
					l125.514-84.233c1.206-0.819,2.811-0.444,3.525,0.86c0.714,1.306,0.3,3.03-0.924,3.85l-125.515,84.233
					C200.501,375.36,200.056,375.507,199.616,375.527z"/>
			</g>
			<g id="XMLID_00000078745536002924353180000016001887437768931484_">
				<path style="fill:#EBEBEB;" d="M184.329,366.683c-0.887,0.04-1.757-0.425-2.236-1.295c-0.713-1.306-0.3-3.029,0.924-3.85
					l125.525-84.233c1.214-0.809,2.81-0.435,3.523,0.861c0.714,1.304,0.3,3.029-0.924,3.85l-125.523,84.231
					C185.215,366.517,184.767,366.664,184.329,366.683z"/>
			</g>
			<g id="XMLID_00000124854185789103291310000014222059668182887563_">
				<path style="fill:#EBEBEB;" d="M169.051,357.85c-0.886,0.04-1.757-0.425-2.236-1.295c-0.713-1.305-0.3-3.029,0.924-3.85
					l125.516-84.231c1.215-0.821,2.811-0.446,3.525,0.86c0.712,1.305,0.3,3.028-0.924,3.85l-125.516,84.23
					C169.937,357.685,169.49,357.831,169.051,357.85z"/>
			</g>
			<g id="XMLID_00000006674349408242552920000010144984133496680891_">
				<path style="fill:#EBEBEB;" d="M153.766,349.009c-0.887,0.039-1.76-0.426-2.238-1.295c-0.713-1.306-0.3-3.03,0.924-3.85
					l125.515-84.233c1.214-0.82,2.811-0.445,3.525,0.86c0.714,1.306,0.3,3.03-0.924,3.85l-125.515,84.233
					C154.65,348.842,154.203,348.989,153.766,349.009z"/>
			</g>
			<g id="XMLID_4988_">
				<path style="fill:#EBEBEB;" d="M138.477,340.174c-0.886,0.039-1.758-0.425-2.235-1.294c-0.714-1.306-0.3-3.03,0.924-3.849
					l125.522-84.233c1.216-0.82,2.812-0.445,3.525,0.861c0.714,1.304,0.3,3.029-0.924,3.849l-125.523,84.232
					C139.363,340.009,138.917,340.155,138.477,340.174z"/>
			</g>
			<g id="XMLID_4979_">
				<path style="fill:#EBEBEB;" d="M123.2,331.333c-0.887,0.04-1.757-0.425-2.236-1.295c-0.713-1.305-0.3-3.03,0.924-3.851
					l125.515-84.231c1.215-0.821,2.811-0.446,3.525,0.86c0.713,1.306,0.299,3.029-0.925,3.851l-125.514,84.231
					C124.086,331.166,123.639,331.313,123.2,331.333z"/>
			</g>
			<g id="XMLID_4978_">
				<path style="fill:#EBEBEB;" d="M107.913,322.5c-0.887,0.04-1.758-0.425-2.237-1.295c-0.713-1.305-0.299-3.029,0.925-3.85
					l125.514-84.232c1.216-0.82,2.812-0.436,3.525,0.86c0.714,1.306,0.3,3.029-0.924,3.85l-125.516,84.231
					C108.799,322.334,108.353,322.48,107.913,322.5z"/>
			</g>
			<g id="XMLID_00000113333610394541450280000002988987019265299873_">
				<path style="fill:#EBEBEB;" d="M92.627,313.667c-0.887,0.04-1.758-0.426-2.236-1.296c-0.713-1.305-0.3-3.029,0.924-3.85
					l125.522-84.242c1.207-0.818,2.803-0.444,3.525,0.86c0.714,1.306,0.3,3.031-0.924,3.851L93.914,313.232
					C93.513,313.501,93.064,313.647,92.627,313.667z"/>
			</g>
			<g id="XMLID_00000091716839871329311080000000723302436236435627_">
				<path style="fill:#EBEBEB;" d="M77.34,304.824c-0.887,0.04-1.758-0.425-2.237-1.294c-0.713-1.306-0.299-3.03,0.925-3.85
					l125.523-84.233c1.207-0.809,2.811-0.444,3.525,0.86c0.713,1.306,0.3,3.03-0.924,3.85L78.628,304.388
					C78.226,304.659,77.778,304.805,77.34,304.824z"/>
			</g>
			<g id="XMLID_00000127011713851671649370000004280326600173654719_">
				<path style="fill:#EBEBEB;" d="M62.063,295.991c-0.887,0.04-1.759-0.425-2.238-1.296c-0.713-1.305-0.3-3.029,0.924-3.85
					l125.516-84.24c1.206-0.81,2.802-0.435,3.524,0.86c0.714,1.304,0.3,3.029-0.924,3.85L63.35,295.555
					C62.948,295.826,62.5,295.971,62.063,295.991z"/>
			</g>
		</g>
		<g id="XMLID_00000172425001481916688250000005156087329777719689_">
			<g id="XMLID_00000084503595878327196980000000371433961142437782_">
				<path style="fill:#BA68C8;" d="M260.987,410.866c-0.887,0.04-1.758-0.425-2.237-1.295c-0.714-1.297-0.309-3.02,0.923-3.85
					l132.761-89.247c1.214-0.82,2.811-0.445,3.524,0.861c0.714,1.296,0.3,3.019-0.924,3.851l-132.759,89.246
					C261.873,410.702,261.426,410.847,260.987,410.866z"/>
			</g>
		</g>
	</g>
</g>
<g id="Line_00000149371106331119610790000007672474328680070537_">
	<g id="Line">
		<path id="XMLID_2608_" style="fill:#263238;" d="M274.188,357.251c-0.192-0.552-0.47-1.111-0.87-0.97
			c-0.211,0.074-0.374,0.35-0.384,0.648c-0.006,0.182,0.04,0.359,0.092,0.526c0.126,0.397,0.374,0.603,0.502,1.027
			c1.478,4.893-3.371,6.434-5.925,6.621c-7.261,0.533-14.393-2.734-21.065-6.292c-9.573-5.105-19.099-10.707-29.117-14.02
			c-8.378-2.77-21.417-5.52-26.258,7.252c-0.096,0.254,0.202,0.728,0.332,0.436c5.251-11.803,17.264-9.36,25.541-6.62
			c10.125,3.351,19.732,9.05,29.413,14.186c6.474,3.434,13.27,6.42,20.292,6.248c3.208-0.078,9.675-1.937,7.675-8.309
			C274.359,357.801,274.284,357.527,274.188,357.251z"/>
	</g>
</g>
<g id="Hand_00000031893975346276352420000003855166016475424664_">
	<g id="Hand">
		<g id="Hand_00000115516478526016082220000017490373581112611999_">
			<g>
				<path style="fill:#FFA8A7;" d="M314.006,207.173c-4.516-8.168-9.845-17.158-15.453-30.32
					c-5.567-13.068-10.381-13.286-23.03-17.802c-10.472-3.739-38.997-15.754-50.392-20.605c-14.665-6.243-18.712-6.955-31.2-21.132
					c-13.595-15.434-59.224-66.086-59.224-66.086l-58.019,107.35c19.408,11.139,35.619,20.446,47.408,27.95
					c10.304,6.559,16.613,12.243,22.375,32.507c3.915,13.767,4.375,19.737,15.153,32.049c8.347,9.534,10.782,12.239,20.459,22.825
					l37.959-15.876c-1.081-1.982-2.098-4.089-2.185-6.346c-0.315-8.124,11.148-6.86,16.402-6.305
					c12.295,1.299,51.76,18.753,51.76,18.753l23.321-18.423c3.776-3.954,7.476-8.875,3.614-19.954
					C315.514,222.733,318.522,215.341,314.006,207.173z"/>
				<path style="fill:#F28F8F;" d="M285.156,176.233c-0.995-1.357-2.314-2.347-3.691-3.287c-0.753-0.514-1.502-1.035-2.268-1.529
					c-0.891-0.574-1.779-1.235-2.739-1.688c-0.179-0.084-0.152,0.225-0.076,0.301c2.545,2.558,5.975,4.041,8.064,7.068
					c0.873,1.265,1.505,2.684,2.15,4.074c0.821,1.771,1.663,3.506,2.554,5.243c0.067,0.13,0.161-0.009,0.136-0.104
					C288.362,182.817,287.326,179.192,285.156,176.233z"/>
				<path style="fill:#F28F8F;" d="M312.954,225.759c0.562-0.664,1.142-1.549,1.663-2.596c-2.664-5.596-8.983-15.572-14.063-28.053
					C304.11,205.063,307.108,210.039,312.954,225.759z"/>
				<path style="fill:#F28F8F;" d="M293.615,175.943c-0.127-0.796-0.304-1.555-0.601-2.305c-0.526-1.333-1.212-2.604-2.186-3.665
					c-1.097-1.193-2.489-1.969-3.919-2.697c-1.563-0.796-3.187-1.511-4.908-1.885c-0.031-0.007-0.041,0.062-0.018,0.075
					c1.436,0.829,2.923,1.569,4.369,2.381c1.323,0.743,2.669,1.547,3.659,2.721c1.779,2.111,2.434,4.905,3.624,7.34
					c0.07,0.143,0.216,0.114,0.216-0.048C293.853,177.202,293.718,176.589,293.615,175.943z"/>
				<path style="fill:#F28F8F;" d="M312.299,242.081c-0.438-5.829-3.479-9.594-6.649-16.841
					c-3.979-9.095-12.818-26.484-15.792-36.666c1.022,9.142,7.114,40.802,11.566,63.394l7.916-6.254
					C310.388,244.616,311.423,243.438,312.299,242.081z"/>
				<path style="fill:#F28F8F;" d="M219.209,256.815c-0.373-1.184-1.073-2.294-1.642-3.393c-0.569-1.098-1.072-2.239-1.554-3.377
					c-0.908-2.14-1.721-4.3-2.328-6.546c-0.613-2.27-1.03-4.595-1.118-6.948c-0.043-1.146-0.016-2.299,0.076-3.442
					c0.049-0.602,0.128-1.198,0.216-1.795c0.068-0.456,0.196-0.954,0.227-1.403c0.025-0.356,0.009-0.696,0.059-1.05
					c0.029-0.206-0.357-0.682-0.501-0.365c-0.245,0.537-0.524,1.039-0.679,1.61c-0.138,0.507-0.249,1.017-0.335,1.535
					c-0.168,1.008-0.28,2.029-0.31,3.051c-0.056,1.908,0.093,3.825,0.407,5.707c0.625,3.739,1.958,7.328,3.696,10.687
					c0.502,0.972,1.062,1.915,1.607,2.864c0.594,1.033,1.218,2.154,2.045,3.019C219.178,257.079,219.236,256.898,219.209,256.815z"
					/>
				<path style="fill:#F28F8F;" d="M291.488,249.548l-23.89-45.157c0,0-24.411,6.997-35.977,13.414
					c-11.566,6.416-17.026,28.597-12.547,39.166l0.462,0.104c-0.873-1.7-1.605-3.49-1.678-5.386
					c-0.315-8.124,11.148-6.86,16.402-6.305c12.295,1.299,51.76,18.753,51.76,18.753l5.801-4.582L291.488,249.548z"/>
				
					<ellipse transform="matrix(0.3916 -0.9202 0.9202 0.3916 -31.8261 157.2727)" style="fill:#FFA8A7;" cx="103.009" cy="102.702" rx="61.859" ry="34.996"/>
			</g>
			<g>
				<g>
					<path style="fill:#FFA8A7;" d="M272.727,168.204c13.857,6.104,15.488,13.717,17.933,23.564
						c2.445,9.847,11.819,30.836,15.488,40.312c3.668,9.476,4.483,11.906,0.815,24.752c-3.668,12.846-14.075,37.984-14.075,37.984
						s-31.165-98.667-33.203-108.773C257.647,175.939,258.87,164.546,272.727,168.204z"/>
					<path style="fill:#F28F8F;" d="M303.867,250.23c-0.035,0.058-0.052,0.099-0.023,0.167c0.434,0.143,1.104-0.153,1.547-0.242
						c0.558-0.112,1.118-0.211,1.68-0.297c0.536-0.083,1.101-0.124,1.675-0.158c0.072-0.37,0.135-0.726,0.194-1.075
						c-1.411,0.172-2.817,0.476-4.143,0.977C304.441,249.737,304.066,249.904,303.867,250.23z M303.807,243.533
						c1.408-0.479,2.789-0.94,4.271-1.136c0.382-0.051,0.767-0.076,1.152-0.091c-0.041-0.378-0.093-0.755-0.157-1.131
						c-0.419,0.028-0.836,0.069-1.249,0.126c-1.542,0.212-3.148,0.652-4.487,1.466C302.889,243.038,303.391,243.674,303.807,243.533
						z M308.449,245.004c-0.884,0.035-1.77,0.128-2.642,0.277c-1.746,0.299-3.592,0.808-5.115,1.738
						c-0.385,0.235,0.126,0.742,0.46,0.626c1.516-0.523,2.992-1.069,4.576-1.364c0.76-0.141,1.525-0.238,2.297-0.282
						c0.396-0.023,0.822-0.005,1.247-0.001c0.027-0.344,0.045-0.681,0.056-1.01C309.028,244.983,308.729,244.993,308.449,245.004z"
						/>
					<path style="fill:#F28F8F;" d="M294.807,229.839c-4.014-7.527-11.269-23.841-14.746-34.205l-12.463-3.865l-4.128,7.945
						c8.788,29.79,29.417,95.104,29.417,95.104s1.544-3.729,3.649-9.042c0.001-0.01,2.787-23.073,4.041-33.406
						C301.832,242.035,298.821,237.365,294.807,229.839z"/>
				</g>
				<g>
					<path style="fill:#FFA8A7;" d="M249.902,286.502c-0.774-0.526-1.544-1.043-2.299-1.597
						c-10.312-7.572-21.298-15.384-27.56-26.872l-37.959,15.876c9.677,10.586,14.494,14.583,20.652,20.161
						c6.158,5.578,24.85,13.24,37.05,19.348c12.063,6.04,17.26,9.144,20.316,7.421C263.552,318.893,267.936,298.757,249.902,286.502
						z"/>
					<g>
						<path style="fill:#F28F8F;" d="M206.079,296.57c0.129-0.435,0.265-0.869,0.423-1.296c0.329-0.893,0.715-1.769,1.144-2.618
							c0.424-0.84,1.056-1.667,1.299-2.579c0.057-0.215-0.246-0.588-0.468-0.411c-0.823,0.652-1.376,1.659-1.876,2.566
							c-0.54,0.98-0.992,2.003-1.369,3.056c-0.069,0.193-0.124,0.391-0.189,0.585C205.373,296.102,205.719,296.335,206.079,296.57z"
							/>
						<path style="fill:#F28F8F;" d="M210.05,298.578c0.405-1.498,0.936-2.956,1.621-4.35c0.58-1.18,1.296-2.29,2.125-3.311
							c0.579-0.713,1.228-1.372,1.937-1.956c0.572-0.472,1.185-0.889,1.714-1.409c0.142-0.14-0.058-0.51-0.254-0.462
							c-1.488,0.362-2.771,1.4-3.844,2.457c-1.128,1.111-2.063,2.396-2.829,3.78c-0.832,1.503-1.437,3.13-1.899,4.782
							c-0.002,0.007-0.003,0.015-0.005,0.022c0.439,0.256,0.893,0.515,1.357,0.775C210.003,298.798,210.021,298.687,210.05,298.578z
							"/>
						<path style="fill:#F28F8F;" d="M214.207,298.249c0.422-1.141,0.909-2.275,1.493-3.342c0.25-0.458,0.525-0.902,0.816-1.335
							c0.288-0.427,0.71-0.84,0.817-1.355c0.045-0.219-0.258-0.566-0.491-0.441c-1.036,0.556-1.775,1.842-2.382,2.819
							c-0.644,1.036-1.165,2.131-1.617,3.264c-0.288,0.721-0.535,1.455-0.768,2.194c0.428,0.228,0.863,0.456,1.305,0.686
							C213.635,299.901,213.904,299.068,214.207,298.249z"/>
					</g>
					<path style="fill:#FFC4C3;" d="M234.603,310.9c1.136-6.715,5.216-9.919,5.216-9.919s8.708,3.645,12.434,7.016
						c3.726,3.371,6.589,10.741,4.269,13.113C251.186,321.11,244.001,315.856,234.603,310.9z"/>
					<path style="opacity:0.3;fill:#FFFFFF;" d="M234.603,310.9c1.098,0.579,2.162,1.161,3.2,1.74
						c0.879-3.159,2.016-7.953,2.016-11.659C239.819,300.981,235.739,304.185,234.603,310.9z"/>
				</g>
				<g>
					<path style="fill:#FFA8A7;" d="M250.617,225.374c6.105,9.962,15.487,27.992,15.597,30.316c0.621,13.132-0.13,26.85-0.13,41.053
						c0,14.204-0.124,24.569,6.104,33.963c5.641,8.509,15.968,10.849,17.471,1.554c1.285-7.947,2.085-24.134,3.229-37.443
						s4.198-32.585,4.961-43.362c0.763-10.777-6.278-21.338-11.047-35.269c-4.146-12.109-7.651-27.405-14.138-33.892
						c-6.487-6.487-31.057-18.655-39.997-23.375L250.617,225.374z"/>
					<g>
						<g>
							<path style="fill:#F28F8F;" d="M297.175,252.32c-0.766,0.057-1.534,0.056-2.301,0.013c-1.635-0.092-3.157-0.518-4.746-0.86
								c-0.398-0.086-0.3,0.487-0.059,0.613c1.49,0.776,3.322,1.051,4.979,1.159c0.858,0.056,1.725,0.037,2.582-0.038
								c0.024-0.002,0.054-0.004,0.08-0.006c0.028-0.326,0.051-0.638,0.076-0.951C297.58,252.278,297.376,252.305,297.175,252.32z"
								/>
							<path style="fill:#F28F8F;" d="M288.026,242.672c-0.262,0.132,0.077,0.597,0.312,0.541c1.88-0.45,3.784-0.653,5.703-0.319
								c0.843,0.147,1.666,0.391,2.459,0.711c0.251,0.101,0.49,0.226,0.733,0.346c-0.091-0.428-0.19-0.858-0.298-1.289
								c-0.851-0.341-1.736-0.599-2.642-0.741C292.224,241.596,289.92,241.718,288.026,242.672z"/>
							<path style="fill:#F28F8F;" d="M291.666,246.148c-1.508-0.04-3.036,0.05-4.512,0.378c-1.256,0.279-3.086,0.593-3.907,1.68
								c-0.037,0.049-0.02,0.174,0.054,0.178c0.69,0.04,1.383-0.207,2.05-0.368c0.719-0.173,1.435-0.341,2.168-0.449
								c1.362-0.202,2.741-0.288,4.117-0.194c1.344,0.092,2.681,0.31,3.979,0.674c0.789,0.221,1.527,0.523,2.258,0.846
								c-0.02-0.515-0.042-1.03-0.093-1.546c-0.553-0.199-1.111-0.377-1.654-0.527C294.671,246.419,293.174,246.188,291.666,246.148
								z"/>
						</g>
						<g>
							<path style="fill:#F28F8F;" d="M292.115,302.418c-0.529-0.166-1.061-0.321-1.596-0.466c-1.095-0.297-2.2-0.552-3.316-0.763
								c-0.238-0.045-0.511,0.095-0.53,0.353c-0.02,0.273,0.257,0.465,0.493,0.509c1.026,0.193,2.045,0.421,3.054,0.692
								c0.493,0.132,0.983,0.275,1.47,0.427c0.174,0.054,0.349,0.112,0.526,0.169c0.021-0.29,0.043-0.58,0.064-0.869
								C292.225,302.454,292.168,302.435,292.115,302.418z"/>
							<path style="fill:#F28F8F;" d="M288.777,298.784c1.131,0.333,2.246,0.729,3.326,1.203c0.119,0.052,0.234,0.113,0.353,0.168
								c0.031-0.399,0.062-0.793,0.093-1.19c-0.04-0.016-0.078-0.036-0.117-0.052c-1.151-0.464-2.328-0.856-3.529-1.167
								c-1.193-0.309-2.393-0.538-3.615-0.699c-1.238-0.163-2.661-0.346-3.892-0.069c-0.232,0.052-0.121,0.433,0.071,0.471
								c1.269,0.25,2.569,0.321,3.844,0.538C286.478,298.186,287.641,298.449,288.777,298.784z"/>
							<path style="fill:#F28F8F;" d="M286.913,295.634c1.574,0.357,3.142,0.784,4.667,1.315c0.37,0.129,0.729,0.284,1.094,0.426
								c0.027-0.326,0.054-0.644,0.081-0.967c-0.257-0.091-0.507-0.199-0.766-0.284c-1.678-0.55-3.377-0.924-5.126-1.165
								C286.412,294.897,286.582,295.559,286.913,295.634z"/>
						</g>
					</g>
					<path style="fill:#FFC4C3;" d="M291.488,313.354c-5.858-5.658-12.026-3.642-12.026-3.642s-1.24,7.697-0.817,14.451
						c0.423,6.755,4.885,10.071,8.297,10.646C290.354,335.384,290.829,328.725,291.488,313.354z"/>
					<path style="opacity:0.3;fill:#FFFFFF;" d="M291.379,315.841c0.036-0.805,0.072-1.627,0.109-2.487
						c-5.858-5.658-12.026-3.642-12.026-3.642C280.66,311.786,287.144,315.443,291.379,315.841z"/>
					<path style="fill:#F28F8F;" d="M275.974,184.105c-2.713-3.695-6.778-5.876-10.77-7.913c-2.236-1.141-4.487-2.279-6.563-3.697
						c-0.123-0.084-0.155,0.176-0.082,0.241c3.172,2.804,6.96,4.752,10.465,7.091c1.676,1.119,3.255,2.392,4.597,3.902
						c1.606,1.807,2.818,3.957,3.788,6.161c1.059,2.405,1.942,4.889,2.899,7.338c0.073,0.187,0.225,0.068,0.206-0.089
						C279.961,192.598,278.719,187.844,275.974,184.105z"/>
				</g>
			</g>
		</g>
		<g id="Pen_16_">
			<g id="XMLID_1235_">
				<path id="XMLID_1240_" style="fill:#BA68C8;" d="M207.399,66.302c0.183,0.268,0.32,0.565,0.416,0.861l-0.535-1.932
					c-0.029-0.117-0.073-0.232-0.109-0.34l-0.029-0.072c-0.036-0.122-0.087-0.232-0.139-0.34l-0.087-0.16
					c-0.044-0.087-0.087-0.174-0.146-0.26l-0.283-0.397c-0.102-0.13-0.217-0.26-0.341-0.383l-0.022-0.022
					c-0.799-0.795-1.946-1.428-3.446-1.822c-5.124-1.354-12.318,0.592-16.059,4.354c-0.535,0.538-0.967,1.076-1.299,1.627
					c-0.071,0.101-0.137,0.21-0.194,0.327c-0.043,0.058-0.073,0.116-0.101,0.187c-0.065,0.124-0.123,0.254-0.18,0.386
					c-0.201,0.463-0.33,0.911-0.387,1.362c-0.02,0.108-0.124,0.665,0.092,1.65l0.614,2.216c-0.102-0.362-0.154-0.747-0.141-1.138
					c0.735,1.179,2.114,2.13,4.107,2.654c5.132,1.361,12.325-0.586,16.066-4.348C206.663,69.237,207.375,67.707,207.399,66.302z"/>
				<path id="XMLID_1237_" style="fill:#F0F0F0;" d="M277.765,325.613l-22.71,6.192l-0.601-2.215L185.164,73.544
					c-0.102-0.362-0.154-0.747-0.141-1.138c0.032-1.398,0.745-2.927,2.212-4.402c3.74-3.762,10.935-5.708,16.065-4.347
					c1.492,0.386,2.646,1.028,3.437,1.815c0.262,0.26,0.479,0.534,0.662,0.831c0.183,0.268,0.32,0.565,0.416,0.861
					c0.022,0.05,0.037,0.109,0.051,0.151l0.015,0.058c0,0.014,0,0.014,0.008,0.022L277.765,325.613z"/>
				<path id="XMLID_1236_" style="fill:#BA68C8;" d="M273.181,321.877c5.13,1.358,6.254,5.511,2.513,9.273
					c-3.741,3.763-10.933,5.712-16.063,4.354c-5.129-1.36-6.255-5.511-2.513-9.274C260.86,322.467,268.052,320.517,273.181,321.877z
					"/>
			</g>
			<path id="XMLID_1234_" style="fill:#E0E0E0;" d="M277.149,343.258c0.015-0.102,0.021-0.21,0.021-0.312l0.701-15.769
				c0.007-0.007,0.007-0.021,0.007-0.037l0.005-0.121c0.008-0.096,0.009-0.191,0.01-0.285l0.006-0.165l-0.009,0.002
				c-0.049-2.103-1.671-3.891-4.708-4.695c-5.129-1.36-12.321,0.59-16.062,4.353c-2.172,2.184-2.693,4.496-1.754,6.319l-0.01,0.002
				l0.072,0.109c0.097,0.177,0.209,0.35,0.336,0.517l0.072,0.112c0.007,0.007,0.022,0.022,0.023,0.036l8.547,13.235
				c0.423,0.666,1.205,1.186,2.314,1.479c2.935,0.78,7.047-0.332,9.184-2.48C276.669,344.787,277.072,344.004,277.149,343.258z"/>
			<g id="XMLID_1231_">
				<path id="XMLID_1233_" style="fill:#455A64;" d="M228.361,172.092c0.007-0.021,0-0.044-0.014-0.058l-0.081-0.31
					c-0.204-0.521-0.734-0.947-1.567-1.169c-1.819-0.481-4.388,0.215-5.717,1.552c-0.585,0.588-0.838,1.204-0.77,1.748
					c-0.007,0.007,0,0.015,0,0.015l0.109,0.397l43.962,162.467l9.284,2.457L228.361,172.092z"/>
				<path id="XMLID_1232_" style="fill:#37474F;" d="M260.736,323.646l3.547,13.087l9.284,2.457l-4.801-17.719
					C266.03,321.608,263.167,322.383,260.736,323.646z"/>
			</g>
			<g id="XMLID_1204_">
				<g id="XMLID_1208_">
					<path id="XMLID_1210_" style="fill:#BA68C8;" d="M276.202,350.144l0.001-0.001l0.013,0l0.637-14.302
						c0.013-0.131,0.025-0.261,0.019-0.385c-0.005-1.513-1.162-2.793-3.34-3.373c-3.62-0.961-8.707,0.415-11.353,3.076
						c-1.527,1.536-1.907,3.16-1.264,4.449c0.019,0.033,0.032,0.059,0.045,0.084l0.216,0.332l7.844,12.141l0.008,0
						c0.238,0.373,0.678,0.672,1.309,0.839c1.65,0.438,3.964-0.189,5.168-1.399C275.992,351.116,276.21,350.607,276.202,350.144z"/>
					<path id="XMLID_1209_" style="opacity:0.1;" d="M276.202,350.144l0.001-0.001l0.013,0l0.637-14.302
						c0.013-0.131,0.025-0.261,0.019-0.385c-0.005-1.513-1.162-2.793-3.34-3.373c-3.62-0.961-8.707,0.415-11.353,3.076
						c-1.527,1.536-1.907,3.16-1.264,4.449c0.019,0.033,0.032,0.059,0.045,0.084l0.216,0.332l7.844,12.141l0.008,0
						c0.238,0.373,0.678,0.672,1.309,0.839c1.65,0.438,3.964-0.189,5.168-1.399C275.992,351.116,276.21,350.607,276.202,350.144z"/>
				</g>
				<g id="XMLID_1205_">
					<path id="XMLID_1207_" style="fill:#BA68C8;" d="M275.505,351.606c-1.203,1.21-3.516,1.835-5.173,1.396
						c-0.625-0.167-1.07-0.466-1.3-0.837l-0.012,0l-3.961-6.136c-0.628-0.962-0.404-2.234,0.792-3.436
						c1.924-1.935,5.63-2.944,8.266-2.247c1.566,0.413,2.402,1.336,2.425,2.424l-0.013,0.287l-0.312,7.087l-0.013,0
						C276.212,350.606,275.992,351.117,275.505,351.606z"/>
					<path id="XMLID_1206_" style="opacity:0.1;" d="M274.696,348.621c1.65,0.438,2.013,1.773,0.809,2.984
						c-1.204,1.211-3.518,1.837-5.168,1.399c-1.651-0.437-2.012-1.772-0.809-2.983C270.732,348.811,273.046,348.184,274.696,348.621
						z"/>
				</g>
			</g>
			<g id="XMLID_1201_">
				<path id="XMLID_1203_" style="fill:#FAFAFA;" d="M207.072,93.405c-0.155-0.602-0.714-1.084-1.626-1.329
					c-1.821-0.48-4.368,0.209-5.682,1.545c-0.672,0.675-0.908,1.379-0.733,1.972l0,0l21.179,78.262
					c-0.067-0.544,0.185-1.16,0.77-1.748c1.329-1.336,3.898-2.032,5.717-1.552c0.833,0.222,1.363,0.648,1.567,1.169L207.072,93.405z
					"/>
				<path id="XMLID_1202_" style="fill:#F5F5F5;" d="M206.339,95.361c-1.322,1.329-3.869,2.017-5.689,1.537
					c-0.899-0.244-1.451-0.72-1.604-1.307c-0.175-0.593,0.047-1.296,0.718-1.971c1.314-1.336,3.861-2.025,5.682-1.545
					c0.912,0.245,1.471,0.728,1.626,1.329C207.233,93.997,206.996,94.701,206.339,95.361z"/>
			</g>
			<path id="XMLID_1200_" style="fill:#BA68C8;" d="M210.551,81.784l0.009-0.001l-0.029-0.106c-0.012-0.049-0.025-0.097-0.04-0.145
				l-3.713-13.676c-0.024-0.109-0.053-0.214-0.087-0.319l-0.02-0.077l-0.007,0.003c-0.486-1.405-1.853-2.553-4.041-3.131
				c-4.617-1.224-11.089,0.531-14.456,3.917c-1.693,1.703-2.277,3.493-1.855,5.008l0,0l3.754,13.848
				c0.007,0.025,0.014,0.05,0.02,0.074l0.022,0.082l0.007-0.002c0.45,1.458,1.835,2.65,4.082,3.246
				c4.617,1.223,11.09-0.532,14.456-3.918C210.272,84.961,210.87,83.256,210.551,81.784z"/>
			<path id="XMLID_1199_" style="opacity:0.05;" d="M210.551,81.784l0.009-0.001l-0.029-0.106c-0.012-0.049-0.025-0.097-0.04-0.145
				l-3.713-13.676c-0.024-0.109-0.053-0.214-0.087-0.319l-0.02-0.077l-0.007,0.003c-0.486-1.405-1.853-2.553-4.041-3.131
				c-4.617-1.224-11.089,0.531-14.456,3.917c-1.693,1.703-2.277,3.493-1.855,5.008l0,0l3.754,13.848
				c0.007,0.025,0.014,0.05,0.02,0.074l0.022,0.082l0.007-0.002c0.45,1.458,1.835,2.65,4.082,3.246
				c4.617,1.223,11.09-0.532,14.456-3.918C210.272,84.961,210.87,83.256,210.551,81.784z"/>
			<path id="XMLID_1198_" style="opacity:0.1;" d="M206.393,78.242c4.617,1.223,5.629,4.96,2.262,8.346
				c-3.367,3.386-9.839,5.141-14.456,3.918c-4.616-1.223-5.63-4.96-2.262-8.347C195.303,78.772,201.776,77.019,206.393,78.242z"/>
			<g id="XMLID_1183_">
				<path id="XMLID_1197_" style="fill:#455A64;" d="M275.85,356.079L275.85,356.079l-1.453-5.743l-0.005,0.002
					c-0.064-0.292-0.32-0.532-0.759-0.649c-0.846-0.223-2.032,0.098-2.649,0.718c-0.309,0.31-0.417,0.637-0.342,0.914l0,0
					l1.432,5.739l0,0c0.089,0.306,0.254,0.594,0.496,0.835c0.764,0.759,1.999,0.757,2.759-0.008
					C275.819,357.395,275.992,356.708,275.85,356.079z"/>
				<path id="XMLID_1196_" style="fill:#263238;" d="M275.894,356.452l0-0.013c-0.007-0.109-0.019-0.233-0.041-0.341
					c-0.008-0.008,0-0.016-0.007-0.022c-0.103-0.232-0.358-0.414-0.735-0.514c-0.849-0.221-2.028,0.093-2.649,0.717
					c-0.303,0.305-0.411,0.618-0.338,0.893c0.008,0.037,0.023,0.079,0.037,0.108c0.008,0.037,0.038,0.104,0.038,0.104
					c0.079,0.195,0.209,0.358,0.369,0.517c0.763,0.758,2.001,0.748,2.759-0.015C275.727,357.485,275.918,356.966,275.894,356.452z"
					/>
			</g>
		</g>
		<g id="Fingers">
			<g>
				<path style="fill:#FFA8A7;" d="M272.727,168.204c13.857,6.104,15.488,13.717,17.933,23.564
					c2.445,9.847,11.819,30.836,15.488,40.312c3.668,9.476,4.483,11.906,0.815,24.752c-3.668,12.846-14.075,37.984-14.075,37.984
					s-31.165-98.667-33.203-108.773C257.647,175.939,258.87,164.546,272.727,168.204z"/>
				<path style="fill:#F28F8F;" d="M303.867,250.23c-0.035,0.058-0.052,0.099-0.023,0.167c0.434,0.143,1.104-0.153,1.547-0.242
					c0.558-0.112,1.118-0.211,1.68-0.297c0.536-0.083,1.101-0.124,1.675-0.158c0.072-0.37,0.135-0.726,0.194-1.075
					c-1.411,0.172-2.817,0.476-4.143,0.977C304.441,249.737,304.066,249.904,303.867,250.23z M303.807,243.533
					c1.408-0.479,2.789-0.94,4.271-1.136c0.382-0.051,0.767-0.076,1.152-0.091c-0.041-0.378-0.093-0.755-0.157-1.131
					c-0.419,0.028-0.836,0.069-1.249,0.126c-1.542,0.212-3.148,0.652-4.487,1.466C302.889,243.038,303.391,243.674,303.807,243.533z
					 M308.449,245.004c-0.884,0.035-1.77,0.128-2.642,0.277c-1.746,0.299-3.592,0.808-5.115,1.738
					c-0.385,0.235,0.126,0.742,0.46,0.626c1.516-0.523,2.992-1.069,4.576-1.364c0.76-0.141,1.525-0.238,2.297-0.282
					c0.396-0.023,0.822-0.005,1.247-0.001c0.027-0.344,0.045-0.681,0.056-1.01C309.028,244.983,308.729,244.993,308.449,245.004z"/>
				<path style="fill:#F28F8F;" d="M294.807,229.839c-4.014-7.527-11.269-23.841-14.746-34.205l-12.463-3.865l-4.128,7.945
					c8.788,29.79,29.417,95.104,29.417,95.104s1.544-3.729,3.649-9.042c0.001-0.01,2.787-23.073,4.041-33.406
					C301.832,242.035,298.821,237.365,294.807,229.839z"/>
			</g>
			<g>
				<path style="fill:#FFA8A7;" d="M249.902,286.502c-0.774-0.526-1.544-1.043-2.299-1.597
					c-10.312-7.572-21.298-15.384-27.56-26.872l-37.959,15.876c9.677,10.586,14.494,14.583,20.652,20.161
					c6.158,5.578,24.85,13.24,37.05,19.348c12.063,6.04,17.26,9.144,20.316,7.421C263.552,318.893,267.936,298.757,249.902,286.502z
					"/>
				<g>
					<path style="fill:#F28F8F;" d="M206.079,296.57c0.129-0.435,0.265-0.869,0.423-1.296c0.329-0.893,0.715-1.769,1.144-2.618
						c0.424-0.84,1.056-1.667,1.299-2.579c0.057-0.215-0.246-0.588-0.468-0.411c-0.823,0.652-1.376,1.659-1.876,2.566
						c-0.54,0.98-0.992,2.003-1.369,3.056c-0.069,0.193-0.124,0.391-0.189,0.585C205.373,296.102,205.719,296.335,206.079,296.57z"
						/>
					<path style="fill:#F28F8F;" d="M210.05,298.578c0.405-1.498,0.936-2.956,1.621-4.35c0.58-1.18,1.296-2.29,2.125-3.311
						c0.579-0.713,1.228-1.372,1.937-1.956c0.572-0.472,1.185-0.889,1.714-1.409c0.142-0.14-0.058-0.51-0.254-0.462
						c-1.488,0.362-2.771,1.4-3.844,2.457c-1.128,1.111-2.063,2.396-2.829,3.78c-0.832,1.503-1.437,3.13-1.899,4.782
						c-0.002,0.007-0.003,0.015-0.005,0.022c0.439,0.256,0.893,0.515,1.357,0.775C210.003,298.798,210.021,298.687,210.05,298.578z"
						/>
					<path style="fill:#F28F8F;" d="M214.207,298.249c0.422-1.141,0.909-2.275,1.493-3.342c0.25-0.458,0.525-0.902,0.816-1.335
						c0.288-0.427,0.71-0.84,0.817-1.355c0.045-0.219-0.258-0.566-0.491-0.441c-1.036,0.556-1.775,1.842-2.382,2.819
						c-0.644,1.036-1.165,2.131-1.617,3.264c-0.288,0.721-0.535,1.455-0.768,2.194c0.428,0.228,0.863,0.456,1.305,0.686
						C213.635,299.901,213.904,299.068,214.207,298.249z"/>
				</g>
				<path style="fill:#FFC4C3;" d="M234.603,310.9c1.136-6.715,5.216-9.919,5.216-9.919s8.708,3.645,12.434,7.016
					c3.726,3.371,6.589,10.741,4.269,13.113C251.186,321.11,244.001,315.856,234.603,310.9z"/>
				<path style="opacity:0.3;fill:#FFFFFF;" d="M234.603,310.9c1.098,0.579,2.162,1.161,3.2,1.74
					c0.879-3.159,2.016-7.953,2.016-11.659C239.819,300.981,235.739,304.185,234.603,310.9z"/>
			</g>
			<g>
				<path style="fill:#FFA8A7;" d="M250.617,225.374c6.105,9.962,15.487,27.992,15.597,30.316c0.621,13.132-0.13,26.85-0.13,41.053
					c0,14.204-0.124,24.569,6.104,33.963c5.641,8.509,15.968,10.849,17.471,1.554c1.285-7.947,2.085-24.134,3.229-37.443
					s4.198-32.585,4.961-43.362c0.763-10.777-6.278-21.338-11.047-35.269c-4.146-12.109-7.651-27.405-14.138-33.892
					c-6.487-6.487-31.057-18.655-39.997-23.375L250.617,225.374z"/>
				<g>
					<g>
						<path style="fill:#F28F8F;" d="M297.175,252.32c-0.766,0.057-1.534,0.056-2.301,0.013c-1.635-0.092-3.157-0.518-4.746-0.86
							c-0.398-0.086-0.3,0.487-0.059,0.613c1.49,0.776,3.322,1.051,4.979,1.159c0.858,0.056,1.725,0.037,2.582-0.038
							c0.024-0.002,0.054-0.004,0.08-0.006c0.028-0.326,0.051-0.638,0.076-0.951C297.58,252.278,297.376,252.305,297.175,252.32z"/>
						<path style="fill:#F28F8F;" d="M288.026,242.672c-0.262,0.132,0.077,0.597,0.312,0.541c1.88-0.45,3.784-0.653,5.703-0.319
							c0.843,0.147,1.666,0.391,2.459,0.711c0.251,0.101,0.49,0.226,0.733,0.346c-0.091-0.428-0.19-0.858-0.298-1.289
							c-0.851-0.341-1.736-0.599-2.642-0.741C292.224,241.596,289.92,241.718,288.026,242.672z"/>
						<path style="fill:#F28F8F;" d="M291.666,246.148c-1.508-0.04-3.036,0.05-4.512,0.378c-1.256,0.279-3.086,0.593-3.907,1.68
							c-0.037,0.049-0.02,0.174,0.054,0.178c0.69,0.04,1.383-0.207,2.05-0.368c0.719-0.173,1.435-0.341,2.168-0.449
							c1.362-0.202,2.741-0.288,4.117-0.194c1.344,0.092,2.681,0.31,3.979,0.674c0.789,0.221,1.527,0.523,2.258,0.846
							c-0.02-0.515-0.042-1.03-0.093-1.546c-0.553-0.199-1.111-0.377-1.654-0.527C294.671,246.419,293.174,246.188,291.666,246.148z
							"/>
					</g>
					<g>
						<path style="fill:#F28F8F;" d="M292.115,302.418c-0.529-0.166-1.061-0.321-1.596-0.466c-1.095-0.297-2.2-0.552-3.316-0.763
							c-0.238-0.045-0.511,0.095-0.53,0.353c-0.02,0.273,0.257,0.465,0.493,0.509c1.026,0.193,2.045,0.421,3.054,0.692
							c0.493,0.132,0.983,0.275,1.47,0.427c0.174,0.054,0.349,0.112,0.526,0.169c0.021-0.29,0.043-0.58,0.064-0.869
							C292.225,302.454,292.168,302.435,292.115,302.418z"/>
						<path style="fill:#F28F8F;" d="M288.777,298.784c1.131,0.333,2.246,0.729,3.326,1.203c0.119,0.052,0.234,0.113,0.353,0.168
							c0.031-0.399,0.062-0.793,0.093-1.19c-0.04-0.016-0.078-0.036-0.117-0.052c-1.151-0.464-2.328-0.856-3.529-1.167
							c-1.193-0.309-2.393-0.538-3.615-0.699c-1.238-0.163-2.661-0.346-3.892-0.069c-0.232,0.052-0.121,0.433,0.071,0.471
							c1.269,0.25,2.569,0.321,3.844,0.538C286.478,298.186,287.641,298.449,288.777,298.784z"/>
						<path style="fill:#F28F8F;" d="M286.913,295.634c1.574,0.357,3.142,0.784,4.667,1.315c0.37,0.129,0.729,0.284,1.094,0.426
							c0.027-0.326,0.054-0.644,0.081-0.967c-0.257-0.091-0.507-0.199-0.766-0.284c-1.678-0.55-3.377-0.924-5.126-1.165
							C286.412,294.897,286.582,295.559,286.913,295.634z"/>
					</g>
				</g>
				<path style="fill:#FFC4C3;" d="M291.488,313.354c-5.858-5.658-12.026-3.642-12.026-3.642s-1.24,7.697-0.817,14.451
					c0.423,6.755,4.885,10.071,8.297,10.646C290.354,335.384,290.829,328.725,291.488,313.354z"/>
				<path style="opacity:0.3;fill:#FFFFFF;" d="M291.379,315.841c0.036-0.805,0.072-1.627,0.109-2.487
					c-5.858-5.658-12.026-3.642-12.026-3.642C280.66,311.786,287.144,315.443,291.379,315.841z"/>
				<path style="fill:#F28F8F;" d="M275.974,184.105c-2.713-3.695-6.778-5.876-10.77-7.913c-2.236-1.141-4.487-2.279-6.563-3.697
					c-0.123-0.084-0.155,0.176-0.082,0.241c3.172,2.804,6.96,4.752,10.465,7.091c1.676,1.119,3.255,2.392,4.597,3.902
					c1.606,1.807,2.818,3.957,3.788,6.161c1.059,2.405,1.942,4.889,2.899,7.338c0.073,0.187,0.225,0.068,0.206-0.089
					C279.961,192.598,278.719,187.844,275.974,184.105z"/>
			</g>
		</g>
	</g>
</g>
<g id="Speech_Bubble">
	<g id="Speech_Bubble_00000147219158440286491150000005337962896716554382_">
		<g>
			<path style="fill:#FFFFFF;" d="M296,104.992c0-32.24,36.481-58.375,81.483-58.375c45.001,0,81.483,26.135,81.483,58.375
				c0,32.239-36.481,58.375-81.483,58.375c-2.708,0-5.383-0.1-8.024-0.284c-8.899,16.726-24.034,19.598-35.801,18.266
				c8.288-3.745,13.499-12.597,12.574-22.438C316.741,150.128,296,129.298,296,104.992z"/>
			<path style="fill:#E0E0E0;" d="M333.562,182.194c-0.38-0.044-0.685-0.335-0.743-0.713c-0.061-0.377,0.142-0.749,0.489-0.905
				c7.929-3.584,12.748-11.979,12.124-21.017c-30.565-9.289-50.281-30.659-50.281-54.566c0-32.657,36.934-59.226,82.332-59.226
				c45.398,0,82.332,26.569,82.332,59.226s-36.934,59.224-82.332,59.224c-2.465,0-4.998-0.083-7.535-0.25
				c-8.405,15.344-21.755,18.514-31.341,18.514C336.766,182.481,335.064,182.363,333.562,182.194z M369.518,162.234
				c2.683,0.188,5.361,0.282,7.965,0.282c44.461,0,80.632-25.805,80.632-57.524c0-31.72-36.171-57.526-80.632-57.526
				c-44.461,0-80.632,25.805-80.632,57.526c0,23.281,19.479,44.126,49.624,53.105c0.331,0.099,0.57,0.389,0.602,0.735
				c0.843,8.946-3.296,17.397-10.477,21.901c9.322,0.431,23.536-1.936,32.108-18.049c0.148-0.28,0.437-0.451,0.75-0.451
				C369.479,162.232,369.498,162.233,369.518,162.234z"/>
		</g>
		<g>
			<path style="fill:#E0E0E0;" d="M396.983,144.01l3.202,0.429l-0.235,1.875h-10.698l0.235-1.875l3.124-0.468l-1.718-6.598h-9.175
				l-2.304,6.598l3.514,0.468l-0.235,1.875h-9.215l0.235-1.875l2.929-0.468l8.98-24.793l4.295-0.469L396.983,144.01z
				 M390.267,135.03l-3.24-12.729h-0.117l-4.412,12.729H390.267z"/>
			<path style="fill:#E0E0E0;" d="M340.634,122.04l0.465-13.462l-1.88-0.424l0.122-0.97h3.153l0.324,0.223l-0.243,6.69l-0.545,4.75
				l0.162,0.041l0.747-2.789c0.728-2.749,1.658-3.942,3.477-3.942c2.082,0,2.991,1.637,2.991,4.305c0,4.204-2.041,6.508-4.891,6.508
				C343.221,122.97,341.503,122.545,340.634,122.04z M343.14,118.927l-0.667,2.324c0.485,0.223,1.132,0.465,2.021,0.465
				c1.88,0,3.092-2.122,3.092-5.114c0-1.132-0.02-3.032-1.435-3.032C344.555,113.571,344.151,115.471,343.14,118.927z"/>
			<path style="fill:#E0E0E0;" d="M326.747,88.69c0,0.789-0.505,1.354-1.294,1.354c-0.587,0-1.112-0.384-1.314-0.889l0.425-0.505
				c0.788-0.889,0.021-1.395-0.97-1.395c-1.86,0-2.931,1.698-2.931,4.77c0,1.92,0.728,3.457,2.365,3.457
				c1.273,0,2.102-0.89,2.749-1.536l0.747,0.768c-0.485,0.647-1.819,2.203-3.881,2.203c-2.627,0-4.043-2.001-4.043-4.831
				c0-3.477,1.901-6.023,5.014-6.023C325.392,86.062,326.747,87.032,326.747,88.69z"/>
			<path style="fill:#E0E0E0;" d="M388.721,79.801c0.93,2.019-0.556,3.528-1.939,4.632l-1.809,1.434
				c0.676,1.18,2.051,2.327,3.574,1.625c1.102-0.508,1.542-1.579,1.836-2.293l0.938,0.392c-0.177,0.727-0.766,2.444-2.583,3.282
				c-2.368,1.091-4.498-0.197-5.657-2.712c-1.455-3.158-0.741-6.246,1.902-7.464C386.82,77.851,388.07,78.388,388.721,79.801z
				 M385.33,79.783c-1.523,0.702-1.818,2.574-0.838,5.038l1.634-1.331c1.133-0.923,1.538-1.687,0.988-2.881
				C386.783,79.893,386.174,79.394,385.33,79.783z"/>
			<path style="fill:#E0E0E0;" d="M379.543,99.766l-1.2,2.902l4.325,1.522l-0.811,1.894l-4.197-1.477l-4.006,10.061
				c-1.469,3.664-3.842,7.26-6.309,8.787c-1.109,0.717-2.254,0.922-3.271,0.564c-1.273-0.448-1.874-1.374-1.592-2.383
				c0.193-0.647,0.716-1.321,1.568-1.914l1.166,1.053c0.945,0.868,1.958,0.832,2.709-0.691c0.496-1.004,0.864-1.947,1.386-3.229
				l5.233-13.346l-2.703-0.952l0.828-1.638l2.632,0.64l0.644-1.524c1.656-3.991,4.881-6.252,8.951-4.819
				c2.003,0.705,4.222,2.522,3.293,5.161c-0.414,1.177-1.434,1.64-2.611,1.226c-0.699-0.246-1.287-0.811-1.49-1.454l0.631-0.778
				c1.044-1.241,0.824-2.14-0.575-2.632C382.08,96.013,380.487,97.489,379.543,99.766z"/>
			<path style="fill:#E0E0E0;" d="M413.969,102.682l-1.592,2.074c-2.484,3.228-4.313,4.567-7.024,3.442
				c-2.901-1.204-2.992-4.357-1.653-7.584c2.104-5.071,6.04-7.507,9.864-5.92c1.086,0.451,2.323,1.219,3.201,2.091l1.312-0.25
				l0.702,0.609l-5.285,11.508c-1.941,4.217-5.236,7.713-10.605,5.485c-1.897-0.787-3.851-2.361-3.03-4.341
				c0.507-1.22,1.607-1.654,2.557-1.259c0.569,0.236,1.107,0.777,1.252,1.346l-0.57,0.685c-0.929,1.013-0.717,1.801,0.775,2.42
				c2.82,1.17,5.399-0.907,7.557-5.034l2.717-5.167L413.969,102.682z M413.48,101.176l2.257-2.91
				c-0.531-0.633-1.829-1.49-2.643-1.828c-2.549-1.058-5.288,1.175-6.897,5.053c-0.473,1.139-1.733,4.176,0.355,5.043
				C408.694,107.423,410.414,105.117,413.48,101.176z"/>
			<path style="fill:#E0E0E0;" d="M321.802,118.534c-0.774,0.295-1.423,0.923-1.93,1.369l-1.271-1.672
				c0.712-0.905,2.166-2.305,4.049-3.022c2.178-0.83,3.851,0.013,4.728,2.977l3.525,11.805c0.305,1.026,0.641,1.574,1.454,1.264
				c0.774-0.295,1.22-1.014,1.716-1.71l1.504,1.287c-0.479,1.07-1.949,2.983-3.943,3.743c-2.621,0.998-3.922-0.197-4.604-2.432
				l-3.705-12.498C323.046,118.694,322.651,118.211,321.802,118.534z M320.059,106.304c1.551-0.591,3.03,0.071,3.607,1.585
				c0.591,1.55-0.072,3.03-1.624,3.621c-1.587,0.605-3.051-0.022-3.642-1.573C317.824,108.424,318.472,106.908,320.059,106.304z"/>
			<path style="fill:#E0E0E0;" d="M375.464,74.093c-1.558,0-1.998-0.909-1.895-2.154l0.65-7.396
				c0.155-1.843-0.156-2.414-1.012-2.414c-1.039,0-1.428,0.727-2.233,3.037l-3.036,8.564h-2.128l0.415-10.796
				c0.025-0.727-0.156-1.038-0.701-1.038c-0.414,0-0.96,0.234-1.531,0.467l-0.441-1.298c0.545-0.311,1.947-0.856,2.984-0.856
				c1.48,0,1.972,0.908,1.817,2.647l-0.648,6.93l0.181,0.052l1.894-5.631c0.934-2.751,1.998-3.997,3.971-3.997
				c2.31,0,2.932,1.479,2.672,4.49l-0.571,6.695c-0.078,0.779,0.026,1.116,0.597,1.116c0.389,0,0.961-0.234,1.453-0.623l0.597,0.934
				C377.903,73.367,376.528,74.093,375.464,74.093z"/>
			<path style="fill:#E0E0E0;" d="M429.299,80.111c3.53,0,5.562,2.62,5.562,6.605c0,4.064-1.792,7.701-6.337,7.701
				c-3.53,0-5.509-2.62-5.509-6.658C423.016,83.748,424.727,80.111,429.299,80.111z M432.348,86.689
				c0-2.915-0.829-5.027-3.262-5.027c-2.862,0-3.53,2.968-3.53,6.203c0,2.969,0.963,4.974,3.128,4.974
				C431.547,92.839,432.348,89.925,432.348,86.689z"/>
			<path style="fill:#E0E0E0;" d="M341.822,64.462c6.716-2.433,13.325,0.329,16.366,8.723c3.331,9.195,0.06,15.4-6.701,18.708
				l0.116,0.32c2.824-0.571,4.81-0.205,6.79,0.39c3.442,1.014,4.692,0.969,4.584-0.576l-0.117-1.45
				c2.438-0.883,3.992-0.09,4.557,1.47c0.71,1.959-0.483,3.658-2.322,4.324c-2,0.725-4.364,0.315-7.294-0.659
				c-3.844-1.367-5.255-1.896-7.573-1.056c-1.68,0.608-2.69,1.563-4.396,3.221l-1.836-1.822c0.785-0.826,1.903-1.865,3.159-2.637
				l-0.087-0.24c-6.373,0.635-10.995-3.389-13.066-9.106C330.049,73.159,335.186,66.866,341.822,64.462z M350.044,90.156
				c4.718-1.709,6.774-7.021,3.979-14.737c-2.534-6.996-6.902-9.936-11.819-8.155c-4.518,1.636-7.214,6.05-4.057,14.765
				C340.667,88.985,344.806,92.053,350.044,90.156z"/>
			<path style="fill:#E0E0E0;" d="M410.814,128.559c-0.324,0-0.748,0.182-1.193,0.364l-0.343-1.011
				c0.425-0.242,1.515-0.667,2.324-0.667c1.153,0,1.536,0.708,1.414,2.062l-0.282,2.87l0.121,0.021l1.091-2.567
				c0.668-1.577,1.173-2.385,2.365-2.385c1.031,0,1.556,0.647,1.556,1.375c0,0.566-0.323,1.132-0.95,1.395l-0.465-0.546
				c-0.223-0.283-0.384-0.445-0.687-0.445c-0.444,0-0.606,0.324-1.253,1.758c-1.497,3.356-1.779,3.982-1.88,5.336l-0.182,1.657
				h-1.496l0.404-8.408C411.38,128.802,411.239,128.559,410.814,128.559z"/>
			<path style="fill:#E0E0E0;" d="M395.341,65.557c2.226-0.516,3.252,0.591,3.51,2.532l1.475,10.504
				c0.351,2.342,0.728,3.139,1.897,2.868c1.277-0.296,1.535-1.509,1.873-4.857l1.22-12.821l3.54-0.821l2.936,15.319
				c0.191,0.994,0.512,1.381,1.279,1.203c0.584-0.135,1.238-0.633,1.937-1.103l1.08,1.673c-0.694,0.661-2.479,1.921-4.011,2.277
				c-2.154,0.499-3.254-0.592-3.601-3.088l-1.356-9.993l-0.301,0.031l-0.6,8.524c-0.312,3.957-1.296,6.185-4.216,6.862
				c-3.211,0.745-4.587-1.206-5.172-5.223l-1.407-9.713c-0.127-1.047-0.401-1.56-1.203-1.374c-0.547,0.127-1.238,0.633-1.748,1.252
				l-1.151-1.31C391.992,67.371,393.772,65.921,395.341,65.557z"/>
			<path style="fill:#E0E0E0;" d="M359.167,135.319c-0.32,1.888-0.775,3.491-1.294,5.162c-0.524,1.696-0.739,2.814,0.741,3.065
				c2.501,0.423,4.69-3.826,5.228-6.544c0.228-1.195,0.02-1.519-0.625-1.891l-0.888-0.492c0.059-1.434,0.861-2.295,2.111-2.084
				c1.608,0.272,2.077,1.533,1.774,3.319c-0.674,3.981-3.744,10.496-8.439,9.702c-1.2-0.203-2.525-1.057-2.448-3.065
				c-1.174,1.507-2.579,2.215-4.621,1.869c-1.378-0.233-3.494-1.064-2.69-4.734l1.506-6.884c0.163-0.812-0.271-1.043-0.998-0.93
				l-0.915,0.134l-0.205-1.426c0.643-0.232,2.158-0.501,3.306-0.307c1.582,0.268,2.069,1.269,1.756,2.66l-1.515,6.621
				c-0.395,1.718-0.401,2.688,0.823,2.895c2.552,0.432,3.845-3.024,4.527-7.056c0.194-1.148,0.32-2.361,0.374-3.454l2.757,0.151
				C359.475,133.035,359.353,134.222,359.167,135.319z"/>
			<path style="fill:#E0E0E0;" d="M431.392,116.389l7.112-7.94l-2.456-1.113l0.493-1.367l7.217,1.607l-0.549,1.48l-2.509-0.024
				l-8.972,9.663l-1.567,5.905l2.728,1.016l-0.507,1.427l-8.294-1.847l0.506-1.428l2.542,0.158l1.65-5.856l-3.488-12.563
				l-2.146-0.949l0.544-1.451l7.965,1.774l-0.513,1.457l-2.572-0.164l2.697,10.187L431.392,116.389z"/>
		</g>
	</g>
</g>
</svg>
